<svg xmlns="http://www.w3.org/2000/svg" viewBox="0 0 28 28"><defs><style>.cls-1{fill:#fff;}</style></defs><title>arrow</title><g id="Layer_2" data-name="Layer 2"><g id="Layer_1-2" data-name="Layer 1"><path class="cls-1" d="M14,2A12,12,0,1,1,2,14,12,12,0,0,1,14,2m0-2A14,14,0,1,0,28,14,14,14,0,0,0,14,0Z"/><path class="cls-1" d="M19.68,11.85h0a1.33,1.33,0,0,0-1.89,0l-2.85,2.85a1.33,1.33,0,0,1-1.89,0L10.2,11.85a1.33,1.33,0,0,0-1.89,0h0a1.33,1.33,0,0,0,0,1.89l4.74,4.74a1.33,1.33,0,0,0,1.88,0l4.74-4.74A1.33,1.33,0,0,0,19.68,11.85Z"/></g></g></svg>